Coordinates
version=1
nRows=6
nColumns=40
inDegrees=yes

Units are S.I. units (second, meters, Newtons, ...)
If the header above contains a line with 'inDegrees', this indicates whether rotational values are in degrees (yes) or radians (no).

endheader
time	pelvis_tilt	pelvis_list	pelvis_rotation	pelvis_tx	pelvis_ty	pelvis_tz	hip_flexion_r	hip_adduction_r	hip_rotation_r	knee_angle_r	knee_angle_r_beta	ankle_angle_r	subtalar_angle_r	mtp_angle_r	hip_flexion_l	hip_adduction_l	hip_rotation_l	knee_angle_l	knee_angle_l_beta	ankle_angle_l	subtalar_angle_l	mtp_angle_l	lumbar_extension	lumbar_bending	lumbar_rotation	arm_flex_r	arm_add_r	arm_rot_r	elbow_flex_r	pro_sup_r	wrist_flex_r	wrist_dev_r	arm_flex_l	arm_add_l	arm_rot_l	elbow_flex_l	pro_sup_l	wrist_flex_l	wrist_dev_l
     17.39999999999999857891	     38.52194359647975119287	    -11.10057740035736806306	    177.26448865193609094604	      0.35836951044803838640	      0.76610065287880768636	     -0.57833832461843048822	     90.57256159230803405080	     -7.80450876220214428969	      8.67910210966318551584	     63.26222487450994691471	      1.10413411619725509993	     12.72751802714275015660	      0.00000000000000000000	      0.00000000000000000000	     84.68486262384871565700	     -3.78479944221781705593	    -13.27532105756382740935	     62.94394030015722307780	      1.09857900241649142359	     17.38193318986525426340	      0.00000000000000000000	      0.00000000000000000000	    -33.97275332080988619055	     -8.05540514597324275314	     -4.65055768363170329849	     55.38873497636986087400	    -13.20630092790158904847	     37.06821895036760139419	     10.47206955979911491283	      6.29669153366075651235	      0.00000000000000000000	      0.00000000000000000000	     62.17630132439187207183	    -15.98360809115997227536	     39.18888070693718361781	     15.24126784968266967724	     87.60719001543570527701	      0.00000000000000000000	      0.00000000000000000000
     17.40500000000000113687	     38.56007853049082001462	    -10.93758630085090999273	    177.40363859696680037814	      0.35826839134986626645	      0.76793739217777212680	     -0.57803402891060906565	     90.28652733307923483608	     -8.00128833178187903741	      8.39049098959788786090	     62.82194095222902063824	      1.09644971210985819887	     12.55847913954051620067	      0.00000000000000000000	      0.00000000000000000000	     84.48561457963384668801	     -3.57663469503591979759	    -13.06022464949436923121	     62.46442511841338074419	      1.09020988368176241501	     17.13868501531630883505	      0.00000000000000000000	      0.00000000000000000000	    -33.88341471218215872341	     -7.79902767217536396771	     -4.68441628029059753402	     55.44803781784266050181	    -13.04340350217038313474	     36.53507274364488921492	      9.93287081129258631051	      8.77004343444150613607	      0.00000000000000000000	      0.00000000000000000000	     62.05661412491851081086	    -16.03085483450646009373	     39.23784772802446951800	     15.31862274255031408643	     87.62778009165974424377	      0.00000000000000000000	      0.00000000000000000000
     17.41000000000000014211	     38.70804423773297742173	    -11.03169486774705809751	    177.27174720409797714638	      0.35841668641604101930	      0.76935391098428795864	     -0.57816498236410795997	     90.20391176360824658786	     -7.82704494100741765550	      8.51944925059891033925	     62.35770260543034737566	      1.08834722444420606280	     12.27234166342071830513	      0.00000000000000000000	      0.00000000000000000000	     84.39046036289202845637	     -3.64802299367364879501	    -13.17141984525365572267	     62.04466855498973387739	      1.08288374959316335833	     16.97853751323289728248	      0.00000000000000000000	      0.00000000000000000000	    -33.60983382407981423512	     -7.96325600398273536484	     -4.58382938643836723713	     55.27662792895949195326	    -13.09814303134418089769	     36.80251543506081191026	      9.82595104083490511471	     10.41148970534210604910	      0.00000000000000000000	      0.00000000000000000000	     61.94721529431811291033	    -16.02762121066033884631	     39.28474323612649499182	     15.28047761175006691303	     87.64477259039354350989	      0.00000000000000000000	      0.00000000000000000000
     17.41499999999999914735	     38.59007069012270818575	    -11.02740203692983556039	    177.10016559935468194453	      0.35814406024903766568	      0.77113627896876069112	     -0.57838535607901042646	     89.82540466153788827341	     -7.73379697968650692275	      8.41141224306546853029	     61.95705051283949416074	      1.08135452627349049060	     12.20016365582943862478	      0.00000000000000000000	      0.00000000000000000000	     84.04107486714502783798	     -3.80129321200839642714	    -13.30437790824072408213	     61.74050877407444204437	      1.07757515996404684699	     16.90052570103006246427	      0.00000000000000000000	      0.00000000000000000000	    -33.61975935791148373255	     -8.02229908005665848236	     -4.50283602838884000619	     55.10575779573387222854	    -13.24091706980149929507	     37.96989044783298083985	     10.46929803995413266193	      6.45776144339919522253	      0.00000000000000000000	      0.00000000000000000000	     61.84763833176784686430	    -16.08935643691633643471	     39.27720796587556861823	     15.25729610900485688774	     87.62009846158524339899	      0.00000000000000000000	      0.00000000000000000000
     17.42000000000000170530	     38.65894971225031184758	    -11.00272462089820812992	    177.05254373820693558628	      0.35807306980318814871	      0.77277422651846283674	     -0.57839652218417547669	     89.60492498600918054308	     -7.72296774766423865799	      8.29542230961223481245	     61.48182898747289470975	      1.07306034597949362386	     12.01354759163604057903	      0.00000000000000000000	      0.00000000000000000000	     83.85821865743022840434	     -3.78227446449967974473	    -13.27438245357899582189	     61.29515438232442647859	      1.06980225948979246198	     16.76211358671744733329	      0.00000000000000000000	      0.00000000000000000000	    -33.44697274086972527130	     -8.01896488189316336559	     -4.42177356871141302719	     55.05039931065872593763	    -13.13521422791414394737	     37.49713467008326972518	     10.12059712674241751529	      8.17936355765880129809	      0.00000000000000000000	      0.00000000000000000000	     61.73615401964148219349	    -16.06591857367919828903	     39.27779690383269439735	     15.22340931607737068987	     87.73067911139622765404	      0.00000000000000000000	      0.00000000000000000000
     17.42500000000000071054	     38.62926960712468371639	    -11.00955377416535796442	    177.26847477133969732677	      0.35783081049457193812	      0.77471704622246229111	     -0.57787384137462782796	     89.33198174186551909770	     -8.05642293847318491373	      8.17018813917827380067	     61.10797584979216168222	      1.06653537780805307555	     11.79133405498516395937	      0.00000000000000000000	      0.00000000000000000000	     83.53385755737377849073	     -3.39586513801613110175	    -13.16815083953216181101	     60.70795049262695641801	      1.05955361823405391775	     16.51411728692903935212	      0.00000000000000000000	      0.00000000000000000000	    -33.42355603044280343283	     -7.87954390233315038472	     -4.63803176452403764785	     55.05446413783668191400	    -12.98646717399891947764	     37.14769786597883438617	      9.65260252028742371522	     10.57474861633524909621	      0.00000000000000000000	      0.00000000000000000000	     61.60788224375507127206	    -16.22642266843539360366	     39.71973124929854037646	     15.41425950016704149448	     87.56821398273076795249	      0.00000000000000000000	      0.00000000000000000000
